<?xml version="1.0"?>
<svg xmlns="http://www.w3.org/2000/svg" height="512px" viewBox="-54 0 512 512" width="512px"><path d="m397.597656 389.523438c-4.160156-.34375-7.746094 2.746093-8.078125 6.875-1.25 15.539062-5.507812 30.421874-12.410156 43.941406-.710937-1.988282-1.535156-3.925782-2.472656-5.8125 13.015625-27.957032 14.28125-60.789063 1.976562-90.460938-.503906-1.210937.074219-2.601562 1.285157-3.101562.746093-.3125 1.390624-.175782 1.804687-.003906.339844.140624.957031.492187 1.285156 1.285156 2.84375 6.855468 5.039063 14.007812 6.527344 21.261718.832031 4.054688 4.796875 6.667969 8.855469 5.835938s6.671875-4.796875 5.839844-8.855469c-1.683594-8.183593-4.160157-16.253906-7.367188-23.988281-1.777344-4.285156-5.117188-7.625-9.40625-9.398438-4.285156-1.777343-9.011719-1.773437-13.292969.007813-8.847656 3.671875-13.058593 13.859375-9.386719 22.703125 9.515626 22.945312 9.648438 48.0625 1.554688 70.414062-2.152344-2.132812-4.488281-4.105468-7.015625-5.871093-1.132813-.792969-1.808594-2.089844-1.808594-3.472657v-26.726562c0-15.21875-5.804687-29.09375-15.289062-39.582031 15.390625-11.398438 25.214843-28.660157 25.214843-47.945313 0-3.34375-.304687-6.625-.875-9.828125 12.195313-13.089843 16.597657-31.664062 11.488282-48.929687-.503906-1.691406-1.425782-3.242188-2.683594-4.5-1.25-1.238282-2.796875-2.160156-4.480469-2.65625-4.6875-1.390625-9.535156-2.09375-14.40625-2.09375-11.46875 0-22.351562 3.808594-31.226562 10.800781-8.265625-3.152344-17.347657-4.894531-26.871094-4.894531-9.496094 0-18.554687 1.734375-26.796875 4.867187 7.609375-11.042969 13.03125-23.679687 15.605469-37.316406h6.183593c15.8125 0 28.675782-12.8125 28.675782-28.558594v-18.308593c0-10.40625-5.617188-19.523438-13.988282-24.515626v-64.257812c0-24.773438-20.25-44.929688-45.144531-44.929688h-11.332031c-7.945312-12.890624-22.230469-21.507812-38.507812-21.507812h-127.789063c-7.59375 0-13.773437 6.164062-13.773437 13.738281v116.960938c-8.371094 4.992187-13.988282 14.109375-13.988282 24.511719v18.3125c0 15.746093 12.863282 28.558593 28.679688 28.558593h6.183594c5.597656 29.644531 24.582031 54.644531 50.445312 68.546875h-63.597656c-15.425782 0-27.972656 12.5-27.972656 27.859375v30.230469c-28.78125 11.152344-49.242188 39.019531-49.242188 71.574219 0 32.554687 20.460938 60.417969 49.242188 71.574219v27.382812c0 7.03125 5.722656 12.75 12.761718 12.75h273.855469c4.261719 0 8.171875-1.53125 11.207031-4.066406 17.671875-7.316406 30.605469-23.8125 32.835938-43.511719 14.054687-19.402344 22.605468-42.390625 24.570312-66.820313.332032-4.128906-2.746094-7.746093-6.875-8.078124zm-43.136718-145.898438c2.621093 0 5.234374.289062 7.796874.863281 1.9375 8.652344.558594 17.609375-3.6875 25.195313-4.710937-8.757813-11.652343-16.367188-20.140624-22.253906 4.910156-2.484376 10.367187-3.804688 16.03125-3.804688zm-58.101563 5.902344c29.804687 0 54.054687 21.132812 54.054687 47.105468 0 25.972657-24.25 47.101563-54.054687 47.101563s-54.054687-21.128906-54.054687-47.101563c0-25.972656 24.25-47.105468 54.054687-47.105468zm-62.207031 20.15625c-4.25-7.582032-5.628906-16.542969-3.6875-25.195313 2.558594-.574219 5.175781-.863281 7.796875-.863281 5.664062 0 11.121093 1.320312 16.03125 3.808594-8.488281 5.882812-15.429688 13.492187-20.140625 22.25zm70.875-114.472656v18.3125c0 7.472656-6.132813 13.558593-13.675782 13.558593h-4.535156c.035156-1.074219.058594-2.152343.058594-3.234375v-42.191406h4.476562c7.542969 0 13.675782 6.078125 13.675782 13.554688zm-44.132813-118.703126c16.625 0 30.144531 13.425782 30.144531 29.929688v60.21875h-4.164062v-43.640625c0-6.921875-5.644531-12.550781-12.578125-12.550781h-18.097656v-25.535156c0-2.878907-.28125-5.691407-.804688-8.421876zm-176.714843 150.570313c-7.539063 0-13.675782-6.082031-13.675782-13.554687v-18.3125c0-7.476563 6.136719-13.558594 13.675782-13.558594h4.480468v42.195312c0 1.082032.023438 2.15625.058594 3.230469zm19.480468-3.230469v-98.382812h26.789063c4.144531 0 7.5-3.359375 7.5-7.5 0-4.144532-3.355469-7.5-7.5-7.5h-29.210938c-6.933593 0-12.578125 5.628906-12.578125 12.550781v43.640625h-4.167968v-111.65625h126.5625c16.625 0 30.144531 13.425781 30.144531 29.929688v25.535156h-73.75c-4.144531 0-7.5 3.355468-7.5 7.5 0 4.140625 3.355469 7.5 7.5 7.5h104.425781v98.382812c0 17.921875-5.726562 34.523438-15.429688 48.144532-5.726562-2.207032-11.863281-3.367188-18.183593-3.367188-4.871094 0-9.71875.703125-14.398438 2.089844-1.683593.496094-3.234375 1.417968-4.5 2.675781-1.242187 1.242187-2.164062 2.792969-2.671875 4.496094-2.429687 8.207031-2.683594 16.707031-.992187 24.78125-8.746094 3.074219-18.140625 4.765625-27.933594 4.765625-46.375 0-84.105469-37.496094-84.105469-83.585938zm84.105469 126.851563c-13.683594 0-24.816406-11.050781-24.816406-24.632813v-6.785156c7.9375 2.042969 16.246093 3.152344 24.816406 3.152344s16.886719-1.105469 24.820313-3.15625v6.789062c0 13.582032-11.132813 24.632813-24.820313 24.632813zm20.289063 9.453125-20.285157 52.15625-20.289062-52.15625c5.945312 3.515625 12.882812 5.546875 20.289062 5.546875 7.402344 0 14.339844-2.027344 20.285157-5.546875zm-143.8125-21.667969c0-7.089844 5.820312-12.855469 12.972656-12.855469h5.554687v38.097656c-1.863281-.132812-3.738281-.226562-5.632812-.226562-4.398438 0-8.699219.386719-12.894531 1.09375zm18.523437 198.515625h-18.523437v-21.007812c4.195312.703124 8.496093 1.09375 12.894531 1.09375 1.886719 0 3.765625-.089844 5.632812-.226563v20.140625zm15 0v-22.710938c12.234375-3.363281 23.515625-9.707031 32.875-18.679687 2.988281-2.867187 3.089844-7.613281.222656-10.605469-2.867187-2.988281-7.617187-3.089844-10.605469-.222656-11.636718 11.15625-26.953124 17.304688-43.121093 17.304688-34.265625 0-62.136719-27.722657-62.136719-61.792969 0-34.074219 27.871094-61.792969 62.136719-61.792969 34.261719 0 62.136719 27.71875 62.136719 61.792969 0 5.355469-.6875 10.667969-2.046876 15.785156-1.058593 4.003906 1.328126 8.109375 5.332032 9.171875 4.007812 1.066406 8.105468-1.324219 9.167968-5.328125 1.6875-6.375 2.546876-12.980469 2.546876-19.628906 0-35.230469-23.960938-64.972657-56.503907-73.980469v-40.683594h40.191407l42.816406 110.089844c1.121094 2.882812 3.898437 4.78125 6.988281 4.78125 3.09375 0 5.871094-1.898438 6.992187-4.78125l33.859376-87.0625c3.144531 14.355469 11.796874 26.953125 23.902343 35.921875-9.480469 10.488281-15.285156 24.359375-15.285156 39.578125v26.730469c0 1.378906-.675781 2.675781-1.808594 3.46875-14.375 10.046875-22.960937 26.496093-22.960937 43.992187 0 15.171875 6.339844 28.882813 16.5 38.648438h-131.199219zm151.9375-22.402344c0 1.25-.1875 2.210938-.382813 2.851563-4.109374 1.09375-7.316406 4.679687-8.890624 9.722656-7.941407-7.078125-12.964844-17.367187-12.964844-28.820313 0-12.605468 6.1875-24.453124 16.554687-31.699218 2.371094-1.65625 4.292969-3.804688 5.683594-6.246094zm33.15625 22.402344h-26c-1.351563 0-2.5-1.121094-2.5-2.449219 0-1.226562.1875-2.171875.378906-2.800781 5.910157-1.574219 9.964844-8.304688 9.964844-17.152344v-72.347656c0-1.355469 1.148437-2.5 2.5-2.5h5.5c1.355469 0 2.5 1.144531 2.5 2.5v72.347656c0 8.792969 3.976563 15.492188 9.785156 17.121094.1875.640625.371094 1.59375.371094 2.832031 0 1.328125-1.140625 2.449219-2.5 2.449219zm53 0h-26c-1.351563 0-2.5-1.121094-2.5-2.449219 0-1.226562.1875-2.171875.378906-2.800781 5.910157-1.574219 9.964844-8.304688 9.964844-17.152344v-72.347656c0-1.355469 1.148437-2.5 2.5-2.5h5.5c1.355469 0 2.5 1.144531 2.5 2.5v72.347656c0 8.792969 3.976563 15.492188 9.785156 17.121094.1875.640625.371094 1.59375.371094 2.832031 0 1.328125-1.140625 2.449219-2.5 2.449219zm4.628906-104.074219c-3.105469-4.90625-8.5625-8.179687-14.785156-8.179687h-5.5c-9.648437 0-17.5 7.851562-17.5 17.5v72.351562c0 1.25-.1875 2.210938-.382813 2.851563-2.3125.613281-4.332031 2.023437-5.941406 4.03125-1.574218-1.976563-3.542968-3.371094-5.792968-4-.191407-.652344-.382813-1.621094-.382813-2.882813v-72.351562c0-9.648438-7.847656-17.5-17.5-17.5h-5.5c-6.347656 0-11.898437 3.410156-14.96875 8.484375v-9.070313c0-12.503906 5.242187-23.792968 13.625-31.828125 9.203125 4.09375 19.554687 6.402344 30.5 6.402344s21.296875-2.308594 30.503906-6.402344c8.382813 8.03125 13.625 19.324219 13.625 31.828125zm11.8125 94.238281c-1.550781-4.996093-4.691406-8.558593-8.714843-9.683593-.191407-.648438-.382813-1.621094-.382813-2.882813v-53.859375c1.375 2.304688 3.234375 4.332031 5.496094 5.914063 10.367187 7.246094 16.558593 19.09375 16.558593 31.699218 0 11.449219-5.019531 21.734376-12.957031 28.8125zm0 0" fill="#00c8cd"/><path d="m184.148438 199.175781h12.234374c4.144532 0 7.5-3.355469 7.5-7.5s-3.355468-7.5-7.5-7.5h-9.734374v-31.007812c0-4.144531-3.359376-7.5-7.5-7.5-4.144532 0-7.5 3.355469-7.5 7.5v33.507812c0 6.890625 5.609374 12.5 12.5 12.5zm0 0" fill="#00c8cd"/><path d="m154.757812 133.316406c1.464844 1.457032 3.378907 2.183594 5.289063 2.183594 1.925781 0 3.851563-.738281 5.316406-2.210938 2.921875-2.9375 2.910157-7.6875-.027343-10.605468-13.835938-13.757813-36.347657-13.757813-50.183594 0-2.9375 2.917968-2.953125 7.667968-.03125 10.605468s7.667968 2.949219 10.605468.027344c8.003907-7.957031 21.027344-7.957031 29.03125 0zm0 0" fill="#00c8cd"/><path d="m215.484375 135.5c1.910156 0 3.824219-.726562 5.289063-2.183594 8-7.957031 21.027343-7.957031 29.035156.003906 2.9375 2.917969 7.683594 2.90625 10.605468-.035156 2.921876-2.9375 2.90625-7.683594-.03125-10.605468-13.839843-13.753907-36.355468-13.75-50.1875.003906-2.9375 2.917968-2.949218 7.667968-.03125 10.605468 1.46875 1.472657 3.394532 2.210938 5.320313 2.210938zm0 0" fill="#00c8cd"/><path d="m141.824219 137.570312c-4.144531 0-7.5 3.359376-7.5 7.5v20.3125c0 4.140626 3.355469 7.5 7.5 7.5s7.5-3.359374 7.5-7.5v-20.3125c0-4.140624-3.355469-7.5-7.5-7.5zm0 0" fill="#00c8cd"/><path d="m233.710938 137.570312c-4.144532 0-7.5 3.359376-7.5 7.5v20.3125c0 4.140626 3.355468 7.5 7.5 7.5 4.144531 0 7.5-3.359374 7.5-7.5v-20.3125c0-4.140624-3.359376-7.5-7.5-7.5zm0 0" fill="#00c8cd"/><path d="m221.382812 212c0-4.144531-3.355468-7.5-7.5-7.5-4.144531 0-7.5 3.355469-7.5 7.5 0 10.265625-8.351562 18.613281-18.613281 18.613281-10.265625 0-18.617187-8.351562-18.617187-18.613281 0-4.144531-3.355469-7.5-7.5-7.5-4.140625 0-7.5 3.355469-7.5 7.5 0 18.535156 15.082031 33.613281 33.617187 33.613281 18.535157 0 33.613281-15.078125 33.613281-33.613281zm0 0" fill="#00c8cd"/><path d="m187.765625 409.5c-10.199219 0-18.5 8.300781-18.5 18.5s8.300781 18.5 18.5 18.5c10.203125 0 18.5-8.300781 18.5-18.5s-8.296875-18.5-18.5-18.5zm0 22c-1.929687 0-3.5-1.570312-3.5-3.5s1.570313-3.5 3.5-3.5 3.5 1.570312 3.5 3.5-1.570313 3.5-3.5 3.5zm0 0" fill="#00c8cd"/><path d="m187.765625 459.5c-10.199219 0-18.5 8.300781-18.5 18.5s8.300781 18.5 18.5 18.5c10.203125 0 18.5-8.300781 18.5-18.5s-8.296875-18.5-18.5-18.5zm0 22c-1.929687 0-3.5-1.570312-3.5-3.5s1.570313-3.5 3.5-3.5 3.5 1.570312 3.5 3.5-1.570313 3.5-3.5 3.5zm0 0" fill="#00c8cd"/><path d="m277.609375 292.171875c4.144531 0 7.5-3.359375 7.5-7.5v-8.539063c0-4.144531-3.355469-7.5-7.5-7.5s-7.5 3.355469-7.5 7.5v8.539063c0 4.140625 3.359375 7.5 7.5 7.5zm0 0" fill="#00c8cd"/><path d="m315.113281 292.171875c4.144531 0 7.5-3.359375 7.5-7.5v-8.539063c0-4.144531-3.355469-7.5-7.5-7.5s-7.5 3.355469-7.5 7.5v8.539063c0 4.140625 3.359375 7.5 7.5 7.5zm0 0" fill="#00c8cd"/><path d="m286.207031 329.027344c3.671875 0 7.171875-1.050782 10.152344-2.9375 2.980469 1.886718 6.484375 2.9375 10.152344 2.9375 10.472656 0 18.992187-8.515625 18.992187-18.988282 0-4.144531-3.359375-7.5-7.5-7.5-4.144531 0-7.5 3.355469-7.5 7.5 0 2.199219-1.789062 3.988282-3.992187 3.988282-1.765625 0-2.980469-1.097656-3.523438-2.128906-1.300781-2.453126-3.847656-3.988282-6.625-3.988282 0 0 0 0-.003906 0-2.773437 0-5.324219 1.535156-6.625 3.984375-.546875 1.03125-1.761719 2.132813-3.527344 2.132813-2.199219 0-3.988281-1.789063-3.988281-3.988282 0-4.144531-3.359375-7.5-7.5-7.5-4.144531 0-7.5 3.355469-7.5 7.5 0 10.472657 8.515625 18.988282 18.988281 18.988282zm0 0" fill="#00c8cd"/><path d="m53.058594 397.582031c4.144531 0 7.5-3.359375 7.5-7.5v-7.015625c0-4.144531-3.355469-7.5-7.5-7.5-4.140625 0-7.5 3.355469-7.5 7.5v7.015625c0 4.140625 3.359375 7.5 7.5 7.5zm0 0" fill="#00c8cd"/><path d="m101.210938 375.566406c-4.144532 0-7.5 3.355469-7.5 7.5v7.015625c0 4.140625 3.355468 7.5 7.5 7.5 4.140624 0 7.5-3.359375 7.5-7.5v-7.015625c0-4.144531-3.359376-7.5-7.5-7.5zm0 0" fill="#00c8cd"/><path d="m100.277344 408.164062c-4.140625 0-7.5 3.355469-7.5 7.5 0 8.5625-7.015625 15.523438-15.644532 15.523438-8.621093 0-15.640624-6.964844-15.640624-15.523438 0-4.144531-3.355469-7.5-7.5-7.5-4.140626 0-7.5 3.355469-7.5 7.5 0 16.832032 13.746093 30.523438 30.640624 30.523438 16.898438 0 30.644532-13.691406 30.644532-30.523438 0-4.140624-3.355469-7.5-7.5-7.5zm0 0" fill="#00c8cd"/></svg>
